<svg width="119" height="145" viewBox="0 0 119 145" fill="none" xmlns="http://www.w3.org/2000/svg">
<g filter="url(#filter0_d_14_473)">
<path d="M21.4649 121.512C23.0969 121.512 24.4089 122.016 25.4009 123.024C26.4089 124.016 26.9129 125.408 26.9129 127.2V135H23.5529V127.656C23.5529 126.616 23.2889 125.824 22.7609 125.28C22.2329 124.72 21.5129 124.44 20.6009 124.44C19.6889 124.44 18.9609 124.72 18.4169 125.28C17.8889 125.824 17.6249 126.616 17.6249 127.656V135H14.2649V127.656C14.2649 126.616 14.0009 125.824 13.4729 125.28C12.9449 124.72 12.2249 124.44 11.3129 124.44C10.3849 124.44 9.64888 124.72 9.10488 125.28C8.57688 125.824 8.31288 126.616 8.31288 127.656V135H4.95288V121.704H8.31288V123.312C8.74488 122.752 9.29688 122.312 9.96888 121.992C10.6569 121.672 11.4089 121.512 12.2249 121.512C13.2649 121.512 14.1929 121.736 15.0089 122.184C15.8249 122.616 16.4569 123.24 16.9049 124.056C17.3369 123.288 17.9609 122.672 18.7769 122.208C19.6089 121.744 20.5049 121.512 21.4649 121.512ZM36.0053 135.216C34.7253 135.216 33.5733 134.936 32.5493 134.376C31.5253 133.8 30.7173 132.992 30.1253 131.952C29.5493 130.912 29.2613 129.712 29.2613 128.352C29.2613 126.992 29.5573 125.792 30.1493 124.752C30.7573 123.712 31.5813 122.912 32.6213 122.352C33.6613 121.776 34.8213 121.488 36.1013 121.488C37.3813 121.488 38.5413 121.776 39.5813 122.352C40.6213 122.912 41.4373 123.712 42.0293 124.752C42.6373 125.792 42.9413 126.992 42.9413 128.352C42.9413 129.712 42.6293 130.912 42.0053 131.952C41.3973 132.992 40.5653 133.8 39.5093 134.376C38.4693 134.936 37.3013 135.216 36.0053 135.216ZM36.0053 132.288C36.6133 132.288 37.1813 132.144 37.7093 131.856C38.2533 131.552 38.6853 131.104 39.0053 130.512C39.3253 129.92 39.4853 129.2 39.4853 128.352C39.4853 127.088 39.1493 126.12 38.4773 125.448C37.8213 124.76 37.0133 124.416 36.0533 124.416C35.0933 124.416 34.2853 124.76 33.6293 125.448C32.9893 126.12 32.6693 127.088 32.6693 128.352C32.6693 129.616 32.9813 130.592 33.6053 131.28C34.2453 131.952 35.0453 132.288 36.0053 132.288ZM44.542 128.304C44.542 126.96 44.806 125.768 45.334 124.728C45.878 123.688 46.614 122.888 47.542 122.328C48.47 121.768 49.502 121.488 50.638 121.488C51.502 121.488 52.326 121.68 53.11 122.064C53.894 122.432 54.518 122.928 54.982 123.552V117.24H58.39V135H54.982V133.032C54.566 133.688 53.982 134.216 53.23 134.616C52.478 135.016 51.606 135.216 50.614 135.216C49.494 135.216 48.47 134.928 47.542 134.352C46.614 133.776 45.878 132.968 45.334 131.928C44.806 130.872 44.542 129.664 44.542 128.304ZM55.006 128.352C55.006 127.536 54.846 126.84 54.526 126.264C54.206 125.672 53.774 125.224 53.23 124.92C52.686 124.6 52.102 124.44 51.478 124.44C50.854 124.44 50.278 124.592 49.75 124.896C49.222 125.2 48.79 125.648 48.454 126.24C48.134 126.816 47.974 127.504 47.974 128.304C47.974 129.104 48.134 129.808 48.454 130.416C48.79 131.008 49.222 131.464 49.75 131.784C50.294 132.104 50.87 132.264 51.478 132.264C52.102 132.264 52.686 132.112 53.23 131.808C53.774 131.488 54.206 131.04 54.526 130.464C54.846 129.872 55.006 129.168 55.006 128.352ZM74.0316 128.064C74.0316 128.544 73.9996 128.976 73.9356 129.36H64.2156C64.2956 130.32 64.6316 131.072 65.2236 131.616C65.8156 132.16 66.5436 132.432 67.4076 132.432C68.6556 132.432 69.5436 131.896 70.0716 130.824H73.6956C73.3116 132.104 72.5756 133.16 71.4876 133.992C70.3996 134.808 69.0636 135.216 67.4796 135.216C66.1996 135.216 65.0476 134.936 64.0236 134.376C63.0156 133.8 62.2236 132.992 61.6476 131.952C61.0876 130.912 60.8076 129.712 60.8076 128.352C60.8076 126.976 61.0876 125.768 61.6476 124.728C62.2076 123.688 62.9916 122.888 63.9996 122.328C65.0076 121.768 66.1676 121.488 67.4796 121.488C68.7436 121.488 69.8716 121.76 70.8636 122.304C71.8716 122.848 72.6476 123.624 73.1916 124.632C73.7516 125.624 74.0316 126.768 74.0316 128.064ZM70.5516 127.104C70.5356 126.24 70.2236 125.552 69.6156 125.04C69.0076 124.512 68.2636 124.248 67.3836 124.248C66.5516 124.248 65.8476 124.504 65.2716 125.016C64.7116 125.512 64.3676 126.208 64.2396 127.104H70.5516ZM79.8441 123.768C80.2761 123.064 80.8361 122.512 81.5241 122.112C82.2281 121.712 83.0281 121.512 83.9241 121.512V125.04H83.0361C81.9801 125.04 81.1801 125.288 80.6361 125.784C80.1081 126.28 79.8441 127.144 79.8441 128.376V135H76.4841V121.704H79.8441V123.768ZM93.5553 121.512C95.1393 121.512 96.4193 122.016 97.3953 123.024C98.3713 124.016 98.8593 125.408 98.8593 127.2V135H95.4993V127.656C95.4993 126.6 95.2353 125.792 94.7073 125.232C94.1793 124.656 93.4593 124.368 92.5473 124.368C91.6193 124.368 90.8833 124.656 90.3393 125.232C89.8113 125.792 89.5473 126.6 89.5473 127.656V135H86.1873V121.704H89.5473V123.36C89.9953 122.784 90.5633 122.336 91.2513 122.016C91.9553 121.68 92.7233 121.512 93.5553 121.512ZM107.958 135.216C106.678 135.216 105.526 134.936 104.502 134.376C103.478 133.8 102.67 132.992 102.078 131.952C101.502 130.912 101.214 129.712 101.214 128.352C101.214 126.992 101.51 125.792 102.102 124.752C102.71 123.712 103.534 122.912 104.574 122.352C105.614 121.776 106.774 121.488 108.054 121.488C109.334 121.488 110.494 121.776 111.534 122.352C112.574 122.912 113.39 123.712 113.982 124.752C114.59 125.792 114.894 126.992 114.894 128.352C114.894 129.712 114.582 130.912 113.958 131.952C113.35 132.992 112.518 133.8 111.462 134.376C110.422 134.936 109.254 135.216 107.958 135.216ZM107.958 132.288C108.566 132.288 109.134 132.144 109.662 131.856C110.206 131.552 110.638 131.104 110.958 130.512C111.278 129.92 111.438 129.2 111.438 128.352C111.438 127.088 111.102 126.12 110.43 125.448C109.774 124.76 108.966 124.416 108.006 124.416C107.046 124.416 106.238 124.76 105.582 125.448C104.942 126.12 104.622 127.088 104.622 128.352C104.622 129.616 104.934 130.592 105.558 131.28C106.198 131.952 106.998 132.288 107.958 132.288Z" fill="#47585B"/>
<path d="M49.9638 34.418C49.1761 34.418 48.5376 35.0566 48.5376 35.8442V79.0106C48.5376 79.7982 49.1761 80.4368 49.9638 80.4368C50.7514 80.4368 51.3899 79.7982 51.3899 79.0106V35.8442C51.3899 35.0564 50.7514 34.418 49.9638 34.418Z" fill="#FFBA08"/>
<path d="M56.4262 34.418C55.6385 34.418 55 35.0566 55 35.8442V79.0106C55 79.7982 55.6385 80.4368 56.4262 80.4368C57.2138 80.4368 57.8524 79.7982 57.8524 79.0106V35.8442C57.8524 35.0564 57.2138 34.418 56.4262 34.418Z" fill="#FFBA08"/>
<path d="M62.4262 34.418C61.6385 34.418 61 35.0566 61 35.8442V79.0106C61 79.7982 61.6385 80.4368 62.4262 80.4368C63.2138 80.4368 63.8524 79.7982 63.8524 79.0106V35.8442C63.8524 35.0564 63.2138 34.418 62.4262 34.418Z" fill="#FFBA08"/>
<path d="M69.0364 34.418C68.2487 34.418 67.6102 35.0566 67.6102 35.8442V79.0106C67.6102 79.7982 68.2487 80.4368 69.0364 80.4368C69.824 80.4368 70.4626 79.7982 70.4626 79.0106V35.8442C70.4626 35.0564 69.8238 34.418 69.0364 34.418Z" fill="#FFBA08"/>
<path d="M86.0258 82.1476H77.2799V31.4706C77.2799 30.6829 76.6413 30.0444 75.8537 30.0444H74.2278V17.0186C74.2278 16.2309 73.5893 15.5924 72.8017 15.5924H70.3543V5.60909C70.3543 4.82145 69.7158 4.1829 68.9281 4.1829H60.9263C60.9263 4.1829 60.2877 4.1829 59.5001 4.1829C58.0739 4.1829 58.0739 6.93962 58.0739 4.1829H50.0721C49.2844 4.1829 48.6459 4.82145 48.6459 5.60909V15.5924H46.1986C45.4109 15.5924 44.7724 16.2309 44.7724 17.0186V30.0444H43.1465C42.3589 30.0444 41.7203 30.6829 41.7203 31.4706V82.1476H32.9744C32.1868 82.1476 31.5482 82.7862 31.5482 83.5738C31.5482 84.3614 32.1868 85 32.9744 85H86.0258C86.8134 85 87.452 84.3614 87.452 83.5738C87.452 82.7862 86.8132 82.1476 86.0258 82.1476ZM51.4983 7.03527H67.502V15.5924H66.1663V10.394C66.1663 9.6064 65.5277 8.96785 64.7401 8.96785C63.9525 8.96785 63.3139 9.6064 63.3139 10.394V15.5924H60.9263V10.394C60.9263 9.6064 60.2877 8.96785 59.5001 8.96785C58.7125 8.96785 58.0739 9.6064 58.0739 10.394V15.5924H55.6865V10.394C55.6865 9.6064 55.0479 8.96785 54.2603 8.96785C53.4727 8.96785 52.8341 9.6064 52.8341 10.394V15.5924H51.4985L51.4983 7.03527ZM47.6247 18.4447H71.3755V30.0444H68.7861V20.6949C68.7861 19.9072 68.1475 19.2687 67.3599 19.2687C66.5723 19.2687 65.9337 19.9072 65.9337 20.6949V30.0444H63.5461V20.6949C63.5461 19.9072 62.9075 19.2687 62.1199 19.2687C61.3323 19.2687 60.6937 19.9072 60.6937 20.6949V30.0444H58.3063V20.6949C58.3063 19.9072 57.6677 19.2687 56.8801 19.2687C56.0925 19.2687 55.4539 19.9072 55.4539 20.6949V30.0444H53.0665V20.6949C53.0665 19.9072 52.4279 19.2687 51.6403 19.2687C50.8527 19.2687 50.2141 19.9072 50.2141 20.6949V30.0444H47.6247V18.4447ZM44.5727 82.1476V32.8967H74.4275V82.1476H44.5727Z" fill="#FFBA08"/>
</g>
<defs>
<filter id="filter0_d_14_473" x="0.952873" y="0" width="117.942" height="143.216" filterUnits="userSpaceOnUse" color-interpolation-filters="sRGB">
<feFlood flood-opacity="0" result="BackgroundImageFix"/>
<feColorMatrix in="SourceAlpha" type="matrix" values="0 0 0 0 0 0 0 0 0 0 0 0 0 0 0 0 0 0 127 0" result="hardAlpha"/>
<feOffset dy="4"/>
<feGaussianBlur stdDeviation="2"/>
<feComposite in2="hardAlpha" operator="out"/>
<feColorMatrix type="matrix" values="0 0 0 0 0 0 0 0 0 0 0 0 0 0 0 0 0 0 0.25 0"/>
<feBlend mode="normal" in2="BackgroundImageFix" result="effect1_dropShadow_14_473"/>
<feBlend mode="normal" in="SourceGraphic" in2="effect1_dropShadow_14_473" result="shape"/>
</filter>
</defs>
</svg>
